<svg xmlns="http://www.w3.org/2000/svg" width="16" height="11" fill="none" viewBox="0 0 16 11"><path fill="#444" d="M15.6671 1.6746a1.8574 1.8574 0 0 0-.5107-.8466 2.0336 2.0336 0 0 0-.892-.4947c-1.252-.33-6.268-.33-6.268-.33a51.0828 51.0828 0 0 0-6.26.3133 2.1066 2.1066 0 0 0-.892.5067c-.2467.2373-.4253.53-.5187.8507a19.3933 19.3933 0 0 0-.3253 3.6626 19.3584 19.3584 0 0 0 .3253 3.6627c.0914.3193.2694.6107.5167.846.2473.2353.5553.4053.894.4953 1.2687.3294 6.26.3294 6.26.3294a51.1873 51.1873 0 0 0 6.268-.3134 2.033 2.033 0 0 0 .892-.4946 1.8532 1.8532 0 0 0 .51-.8467 18.9184 18.9184 0 0 0 .334-3.6633 17.7208 17.7208 0 0 0-.3333-3.678v.0006ZM6.4017 7.6193V3.0546l4.1734 2.2827-4.1734 2.282Z"/></svg>